<svg id="Layer_1" data-name="Layer 1" xmlns="http://www.w3.org/2000/svg" viewBox="0 0 461.59 222.65"><defs><style>.cls-1{fill:#fff;}.cls-2{fill:#ae4482;}</style></defs><path class="cls-1" d="M272.6,101.08a39.15,39.15,0,0,0-2.87,10.12,30.38,30.38,0,0,0-.07,11.79,11.47,11.47,0,0,0,1,2.79,4.75,4.75,0,0,0,4.51,2.63c5.73-.1,10.6-2.43,15-5.84,5.74-4.43,10.18-10,14.17-16,3.62-5.41,7.13-10.9,10.62-16.4a12.81,12.81,0,0,0,1.16-3.11,182.31,182.31,0,0,1,9.39-24.32c1.35-2.86,2.75-3.54,5.86-2.78a13.18,13.18,0,0,1,7.42,4.55,4.59,4.59,0,0,1,.72,4.7c-4.16,12.4-8.23,24.82-12.34,37.24a38.69,38.69,0,0,0-1.5,5.41l.57-1.07c6-11.59,12.13-23.13,19.44-34,1.92-2.85,4.07-5.54,6.14-8.28.61-.79,1.35-1.47,2-2.23,5-5.69,9.88-4.68,15.2-.42,3.28,2.61,4.3,6.17,3.14,10.33-3,10.71-5.91,21.45-8.86,32.17-.51,1.83-1,3.65-1.38,5.54l.59-1C370.68,98.88,379,85,388.73,72c2.27-3,4.88-5.81,7.41-8.63,3.41-3.82,7.57-2.35,10.11-.06a12.57,12.57,0,0,1,3.86,13.94c-2.59,8.13-5.47,16.16-8.39,24.18-3.08,8.47-6.36,16.86-9.53,25.3-.32.87-.49,1.81-.73,2.71l.34.31a10.56,10.56,0,0,0,2.23-1.34c2.28-2.29,4.62-4.55,6.67-7a294.13,294.13,0,0,0,22.4-32,8,8,0,0,1,4.6-3.8c1.67-.48,2.69.24,2.5,1.93a8.63,8.63,0,0,1-1,3.28c-8.21,14.51-17.39,28.33-29.07,40.35-.87.89-1.86,1.65-2.7,2.56-3.45,3.67-7.63,3.94-12.15,2.71-.42-.12-.84-.27-1.25-.42-3.27-1.2-4.82-3.58-5-7a58,58,0,0,1,2.06-16,271.89,271.89,0,0,1,11.29-34.67c.13-.33.24-.67.34-1a1.22,1.22,0,0,0-.15-.45,28.74,28.74,0,0,0-2.22,2.58c-4.27,6.52-8.72,12.92-12.68,19.63-6.76,11.48-13.21,23.16-19.79,34.76a7.48,7.48,0,0,1-1.25,1.89,3.64,3.64,0,0,1-2.13,1.08,44.91,44.91,0,0,1-7.13-.75c-2.6-.51-3.83-2.23-3.87-4.89-.1-6.76,1.12-13.36,2.56-19.92,2.64-12.09,6.37-23.87,10.08-35.67.15-.48.26-1,.39-1.46l-.26-.26a8.07,8.07,0,0,0-1.73,1.22,67.3,67.3,0,0,0-4.43,5.8c-6.55,10.15-12,20.91-17.36,31.71q-5.31,10.72-10.28,21.62c-.81,1.78-2,2.75-3.76,2.76a20.72,20.72,0,0,1-5.55-.54c-3.37-1-5.16-4-4.77-7.64.71-6.74,1.46-13.48,2.18-20.06-.07.09-.33.4-.56.72a105.79,105.79,0,0,1-14,17.22c-4.78,4.54-10.08,8.24-16.65,9.74a24.13,24.13,0,0,1-13-.46c-7.67-2.49-11.75-8-12.67-15.84-.41-3.39-.07-6.86-.29-10.39-.25.32-.51.64-.75,1a98.5,98.5,0,0,1-14.17,16.86c-4.55,4.14-9.57,7.46-15.68,8.85a24.23,24.23,0,0,1-13-.44c-7.73-2.5-11.93-8.11-12.74-16-2.25-21.14,8.39-44,26.61-55.67,3.84-2.44,7.92-4.39,12.56-4.65a16.57,16.57,0,0,1,13.36,5,11.22,11.22,0,0,1,2.91,10c-1.1,7.63-4.75,14.08-9.48,20A33.29,33.29,0,0,1,232.28,104a19.13,19.13,0,0,1-5.5,1.87c-3.94.63-7-1.35-9.75-3.9a13.18,13.18,0,0,1-1-1.11c-.52,1.45-1,2.65-1.38,3.88a42.29,42.29,0,0,0-2.06,14.3,22.44,22.44,0,0,0,1.18,6.06c.83,2.45,2.62,3.48,5.21,3.39,5.49-.18,10.19-2.41,14.47-5.68,5.8-4.42,10.28-10,14.3-16q5.5-8.2,10.76-16.59c1.34-2.12,2.28-4.49,3.56-6.64a56.07,56.07,0,0,1,18.4-19.23c3.79-2.37,7.81-4.28,12.36-4.51a16.43,16.43,0,0,1,13.83,5.57c2.63,3,3.13,6.66,2.28,10.39A43.42,43.42,0,0,1,288.86,104a15.22,15.22,0,0,1-4,1.6c-4.58,1.23-8.16-.73-11.37-3.75-.23-.21-.44-.46-.66-.69Zm1.58-3.74c5.25,2.78,9.68,2.63,14.34-.69,5.56-4,9-9.52,11.6-15.69a20.26,20.26,0,0,0,1.93-9c-.12-2.46-1.55-3.72-3.87-3a19.28,19.28,0,0,0-5.43,2.65c-4.68,3.36-8.1,7.91-11.29,12.63A88.25,88.25,0,0,0,274.18,97.34Zm-56.62,0c5.44,2.82,10.45,2.45,15.14-1.28,5.44-4.34,8.92-10,11.33-16.47a17.88,17.88,0,0,0,1.41-7.71c-.2-2.5-1.58-3.66-3.95-2.86a21.75,21.75,0,0,0-5.61,2.83,39.63,39.63,0,0,0-8.58,9,89.77,89.77,0,0,0-9.74,16.54Z" transform="translate(0 0.01)"/><path class="cls-2" d="M105.31,177c-.8-.34-1.63-.62-2.4-1-6.7-3.57-13-7.73-18.16-13.37a31.76,31.76,0,0,1-8.64-17.81,30.23,30.23,0,0,1,3.34-17.73c.33-.64.66-1.28,1-1.92a.89.89,0,0,0,0-.23c-2.12-.57-3.11-.29-3.94,1.67-2,4.73-4,9.48-5.75,14.32a285.35,285.35,0,0,0-10.11,34c-1,4.63-2,9.28-1.8,14.08a9.22,9.22,0,0,0,.61,2.64c.4,1.08.25,1.48-.94,1.48a13.8,13.8,0,0,1-3.68-.29A29,29,0,0,1,50,191.06c-3.4-1.59-4.84-4.41-5-8.08-.2-6.71,1.25-13.16,3-19.56,3.76-13.76,8.93-27,14.52-40.13A715.63,715.63,0,0,1,101.2,45.55c2.91-5,6.17-9.9,9.43-14.73a9.9,9.9,0,0,1,7.6-4.45c3.54-.33,8.16,2.16,9.61,5.38a3.9,3.9,0,0,1-.2,3.88q-24.14,39.19-46.18,79.61c-.44.8-.86,1.6-1.44,2.71,1.62-.12,3-.14,4.32-.32,4.54-.59,9.1-1.09,13.61-1.88,18.42-3.21,35.94-8.83,51.38-19.79,9-6.41,16.47-14.27,21.36-24.35a42.78,42.78,0,0,0,4.41-22.76,39.2,39.2,0,0,0-13.33-26.27c-7.74-7-17-10.9-27.09-13A86.34,86.34,0,0,0,112.17,8,113.23,113.23,0,0,0,72,17.68,109.54,109.54,0,0,0,36.47,42.17c-8.51,8.92-15,19.06-18.25,31.08C15.35,83.88,15.94,94.18,21.28,104c1.89,3.49,4.5,6.12,8.55,6.89a17.2,17.2,0,0,0,9.06-1c3-1.1,6-2.48,9-3.6a15,15,0,0,1,4.48-1.05,3.67,3.67,0,0,1,3.84,3.49,3.74,3.74,0,0,1-.58,2.16A16.44,16.44,0,0,1,44,119.2c-6.53,1.32-12.78,0-18.86-2.28C19.41,114.71,14,111.84,10,107A41.88,41.88,0,0,1,.44,85.89c-1.53-10.5,1-20.19,5.91-29.39,5.19-9.79,12.42-17.92,20.81-25A133.14,133.14,0,0,1,83.28,3.36a168.57,168.57,0,0,1,17-2.76,96,96,0,0,1,19.4-.22c14,1,27.54,3.87,40.25,10,10,4.85,18.75,11.28,25.32,20.4A41.7,41.7,0,0,1,193,49.41c1.41,9.83-.8,18.94-5.9,27.4-5.5,9.06-13.1,15.94-21.87,21.72-10.84,7.18-22.69,12.19-35,16.12a225.77,225.77,0,0,1-32.65,7.71c-4.91.78-9.85,1.41-14.78,2.16a1.18,1.18,0,0,0-.83.72,70.4,70.4,0,0,0-.71,8.58c.09,5,1.57,9.73,3.16,14.42a54.47,54.47,0,0,0,17.46,25.18c1.26,1,2.42,2.19,3.62,3.29Z" transform="translate(0 0.01)"/><path class="cls-2" d="M461.06,213.3c-2.21-2.41-4.29-5-6.66-7.23-13.28-12.63-28.93-21.3-46.14-27.35a177.25,177.25,0,0,0-33.33-8.38c-5.51-.8-11.06-1.49-16.62-1.88s-11.1-.59-16.65-.47c-6,.13-12,.7-18,1.12-2.83.2-5.66.45-8.47.75-5.11.54-10.24.95-15.31,1.78-8.09,1.32-16.18,2.72-24.19,4.49-10.33,2.29-20.64,4.78-30.86,7.55-16.41,4.47-32.7,9.39-49.12,13.84-9.76,2.64-19.63,4.89-29.52,7a122.44,122.44,0,0,1-15.15,2,120.54,120.54,0,0,1-14.72.46c-18.18-.74-33.85-7.21-45.93-21.17-3.39-3.81-6.24-8.1-9.28-12.21a13.24,13.24,0,0,1-1.74-3.36c.49.4,1,.77,1.46,1.2a69.19,69.19,0,0,0,16.74,11.91,66.49,66.49,0,0,0,17.91,5.39,83.43,83.43,0,0,0,19.46.91,142,142,0,0,0,24-3.66c15.06-3.49,29.62-8.57,44.18-13.67,15.47-5.42,31-10.53,47-14.13q13.17-3,26.49-5.18c6.47-1.1,13-1.74,19.56-2.44a214.1,214.1,0,0,1,30.28-1.12c7.37.25,14.74.86,22.08,1.62a192.65,192.65,0,0,1,43.26,9.8c14.84,5.17,28.83,11.95,41.37,21.53a124.85,124.85,0,0,1,27,28.06c.44.62.82,1.28,1.22,1.92.08.13.14.27.21.41Z" transform="translate(0 0.01)"/><path class="cls-2" d="M114.27,210c1,.3,2.07.52,3.06.9a47.17,47.17,0,0,0,16.22,3.26c6.39.08,12.82.43,19.16-.14a193.85,193.85,0,0,0,21.7-3.4c21.4-4.41,42.32-10.69,63.29-16.74,15.66-4.51,31.39-8.74,47.41-11.8,7.89-1.5,15.84-2.77,23.8-3.9,6.39-.91,12.82-1.73,19.25-2.09,8.18-.45,16.39-.7,24.57-.46,7.36.21,14.71,1.1,22,1.86,11.09,1.14,21.55,4.63,31.73,9,3,1.31,6,2.74,9,4.17a21.5,21.5,0,0,1,2.33,1.56l-.16.31c-2.46-.54-4.93-1.09-7.4-1.62-9.38-2-18.74-4.15-28.14-6.08a60.46,60.46,0,0,0-8.9-1c-5.1-.27-10.23-.56-15.33-.44-6.58.16-13.17.54-19.72,1.11-27.13,2.38-53.56,8.4-79.73,15.68-20,5.57-40,11.21-60,16.51-7.87,2.08-15.95,3.46-24,4.92a76.36,76.36,0,0,1-9.9.79c-3.51.17-7,.29-10.54.23-12.79-.22-24.89-3.1-36-9.55-1.37-.79-2.63-1.75-4-2.63Z" transform="translate(0 0.01)"/></svg>